<?xml version="1.0" encoding="UTF-8" standalone="no"?>
<!DOCTYPE svg PUBLIC "-//W3C//DTD SVG 1.1//EN"
 "http://www.w3.org/Graphics/SVG/1.1/DTD/svg11.dtd">
<!-- Generated by graphviz version 14.0.4 (20251115.1723)
 -->
<!-- Pages: 1 -->
<svg width="897pt" height="967pt"
 viewBox="0.00 0.00 897.00 967.00" xmlns="http://www.w3.org/2000/svg" xmlns:xlink="http://www.w3.org/1999/xlink">
<g id="graph0" class="graph" transform="scale(1 1) rotate(0) translate(4 963)">
<polygon fill="white" stroke="none" points="-4,4 -4,-963 893.38,-963 893.38,4 -4,4"/>
<!-- node00000080777ffd00 -->
<g id="node1" class="node">
<title>node00000080777ffd00</title>
<path fill="#dd7538" stroke="#000000" d="M356.62,-885C356.62,-885 497.12,-885 497.12,-885 503.12,-885 509.12,-891 509.12,-897 509.12,-897 509.12,-946.5 509.12,-946.5 509.12,-952.5 503.12,-958.5 497.12,-958.5 497.12,-958.5 356.62,-958.5 356.62,-958.5 350.62,-958.5 344.62,-952.5 344.62,-946.5 344.62,-946.5 344.62,-897 344.62,-897 344.62,-891 350.62,-885 356.62,-885"/>
<text xml:space="preserve" text-anchor="middle" x="426.88" y="-941.2" font-family="Times New Roman,serif" font-size="14.00">PTR: 00000080777ffd00</text>
<polyline fill="none" stroke="#000000" points="344.62,-934 509.12,-934"/>
<text xml:space="preserve" text-anchor="middle" x="426.88" y="-916.7" font-family="Times New Roman,serif" font-size="14.00">SIZE: 43</text>
<polyline fill="none" stroke="#000000" points="344.62,-909.5 509.12,-909.5"/>
<text xml:space="preserve" text-anchor="middle" x="426.88" y="-892.2" font-family="Times New Roman,serif" font-size="14.00">ROOT: 000001854cf46100</text>
</g>
<!-- node000001854cf46100 -->
<g id="node2" class="node">
<title>node000001854cf46100</title>
<path fill="#828282" stroke="#000000" d="M386.12,-799C386.12,-799 467.62,-799 467.62,-799 473.62,-799 479.62,-805 479.62,-811 479.62,-811 479.62,-836 479.62,-836 479.62,-842 473.62,-848 467.62,-848 467.62,-848 386.12,-848 386.12,-848 380.12,-848 374.12,-842 374.12,-836 374.12,-836 374.12,-811 374.12,-811 374.12,-805 380.12,-799 386.12,-799"/>
<text xml:space="preserve" text-anchor="middle" x="426.88" y="-830.7" font-family="Times New Roman,serif" font-size="14.00">TYPE: {</text>
<polyline fill="none" stroke="#000000" points="374.12,-823.5 479.62,-823.5"/>
<text xml:space="preserve" text-anchor="middle" x="398.25" y="-806.2" font-family="Times New Roman,serif" font-size="14.00">LEFT</text>
<polyline fill="none" stroke="#000000" points="422.38,-799 422.38,-823.5"/>
<text xml:space="preserve" text-anchor="middle" x="451" y="-806.2" font-family="Times New Roman,serif" font-size="14.00">RIGHT</text>
</g>
<!-- node00000080777ffd00&#45;&gt;node000001854cf46100 -->
<g id="edge1" class="edge">
<title>node00000080777ffd00&#45;&gt;node000001854cf46100</title>
<path fill="none" stroke="black" d="M426.88,-873.31C426.88,-868.69 426.88,-864.06 426.88,-859.59"/>
<polygon fill="black" stroke="black" points="423.38,-873.12 426.88,-883.12 430.38,-873.12 423.38,-873.12"/>
<polygon fill="black" stroke="black" points="430.38,-859.77 426.88,-849.77 423.38,-859.77 430.38,-859.77"/>
</g>
<!-- node000001854cf46140 -->
<g id="node3" class="node">
<title>node000001854cf46140</title>
<path fill="#8791ff" stroke="#000000" d="M185.88,-688.5C185.88,-688.5 309.88,-688.5 309.88,-688.5 315.88,-688.5 321.88,-694.5 321.88,-700.5 321.88,-700.5 321.88,-750 321.88,-750 321.88,-756 315.88,-762 309.88,-762 309.88,-762 185.88,-762 185.88,-762 179.88,-762 173.88,-756 173.88,-750 173.88,-750 173.88,-700.5 173.88,-700.5 173.88,-694.5 179.88,-688.5 185.88,-688.5"/>
<text xml:space="preserve" text-anchor="middle" x="247.88" y="-744.7" font-family="Times New Roman,serif" font-size="14.00">TYPE: IDENT</text>
<polyline fill="none" stroke="#000000" points="173.88,-737.5 321.88,-737.5"/>
<text xml:space="preserve" text-anchor="middle" x="247.88" y="-720.2" font-family="Times New Roman,serif" font-size="14.00">VALUE: по_какой_сел</text>
<polyline fill="none" stroke="#000000" points="173.88,-713 321.88,-713"/>
<text xml:space="preserve" text-anchor="middle" x="208.5" y="-695.7" font-family="Times New Roman,serif" font-size="14.00">LEFT</text>
<polyline fill="none" stroke="#000000" points="243.12,-688.5 243.12,-713"/>
<text xml:space="preserve" text-anchor="middle" x="282.25" y="-695.7" font-family="Times New Roman,serif" font-size="14.00">RIGHT</text>
</g>
<!-- node000001854cf46100&#45;&gt;node000001854cf46140 -->
<g id="edge2" class="edge">
<title>node000001854cf46100:sw&#45;&gt;node000001854cf46140</title>
<path fill="none" stroke="black" d="M365.75,-790.66C355.43,-781.58 343.87,-773.36 332.15,-766.06"/>
<polygon fill="black" stroke="black" points="363.33,-793.19 373.02,-797.47 368.11,-788.08 363.33,-793.19"/>
<polygon fill="black" stroke="black" points="333.96,-763.06 323.58,-760.92 330.36,-769.07 333.96,-763.06"/>
</g>
<!-- node000001854cdeabd0 -->
<g id="node4" class="node">
<title>node000001854cdeabd0</title>
<path fill="#dd65c9" stroke="#000000" d="M615.12,-700.75C615.12,-700.75 696.62,-700.75 696.62,-700.75 702.62,-700.75 708.62,-706.75 708.62,-712.75 708.62,-712.75 708.62,-737.75 708.62,-737.75 708.62,-743.75 702.62,-749.75 696.62,-749.75 696.62,-749.75 615.12,-749.75 615.12,-749.75 609.12,-749.75 603.12,-743.75 603.12,-737.75 603.12,-737.75 603.12,-712.75 603.12,-712.75 603.12,-706.75 609.12,-700.75 615.12,-700.75"/>
<text xml:space="preserve" text-anchor="middle" x="655.88" y="-732.45" font-family="Times New Roman,serif" font-size="14.00">TYPE: ;</text>
<polyline fill="none" stroke="#000000" points="603.12,-725.25 708.62,-725.25"/>
<text xml:space="preserve" text-anchor="middle" x="627.25" y="-707.95" font-family="Times New Roman,serif" font-size="14.00">LEFT</text>
<polyline fill="none" stroke="#000000" points="651.38,-700.75 651.38,-725.25"/>
<text xml:space="preserve" text-anchor="middle" x="680" y="-707.95" font-family="Times New Roman,serif" font-size="14.00">RIGHT</text>
</g>
<!-- node000001854cf46100&#45;&gt;node000001854cdeabd0 -->
<g id="edge3" class="edge">
<title>node000001854cf46100:se&#45;&gt;node000001854cdeabd0</title>
<path fill="none" stroke="black" d="M487.77,-790.93C517.73,-765.01 558.26,-749.01 592.02,-739.41"/>
<polygon fill="black" stroke="black" points="485.68,-788.1 480.73,-797.47 490.44,-793.23 485.68,-788.1"/>
<polygon fill="black" stroke="black" points="592.52,-742.9 601.25,-736.9 590.69,-736.14 592.52,-742.9"/>
</g>
<!-- node000001854cf47c60 -->
<g id="node5" class="node">
<title>node000001854cf47c60</title>
<path fill="#dd65c9" stroke="#000000" d="M46.25,-609C46.25,-609 127.5,-609 127.5,-609 133.5,-609 139.5,-615 139.5,-621 139.5,-621 139.5,-633 139.5,-633 139.5,-639 133.5,-645 127.5,-645 127.5,-645 46.25,-645 46.25,-645 40.25,-645 34.25,-639 34.25,-633 34.25,-633 34.25,-621 34.25,-621 34.25,-615 40.25,-609 46.25,-609"/>
<text xml:space="preserve" text-anchor="middle" x="86.88" y="-622.2" font-family="Times New Roman,serif" font-size="14.00">TYPE: PARAM</text>
</g>
<!-- node000001854cf46140&#45;&gt;node000001854cf47c60 -->
<g id="edge4" class="edge">
<title>node000001854cf46140:sw&#45;&gt;node000001854cf47c60</title>
<path fill="none" stroke="black" d="M165.68,-680.28C153.49,-669.42 139.61,-659.47 126.92,-651.24"/>
<polygon fill="black" stroke="black" points="163.09,-682.65 172.77,-686.96 167.89,-677.56 163.09,-682.65"/>
<polygon fill="black" stroke="black" points="129.11,-648.48 118.79,-646.1 125.37,-654.4 129.11,-648.48"/>
</g>
<!-- node000001854cf47d20 -->
<g id="node6" class="node">
<title>node000001854cf47d20</title>
<path fill="#dd65c9" stroke="#000000" d="M281.12,-602.5C281.12,-602.5 362.62,-602.5 362.62,-602.5 368.62,-602.5 374.62,-608.5 374.62,-614.5 374.62,-614.5 374.62,-639.5 374.62,-639.5 374.62,-645.5 368.62,-651.5 362.62,-651.5 362.62,-651.5 281.12,-651.5 281.12,-651.5 275.12,-651.5 269.12,-645.5 269.12,-639.5 269.12,-639.5 269.12,-614.5 269.12,-614.5 269.12,-608.5 275.12,-602.5 281.12,-602.5"/>
<text xml:space="preserve" text-anchor="middle" x="321.88" y="-634.2" font-family="Times New Roman,serif" font-size="14.00">TYPE: ;</text>
<polyline fill="none" stroke="#000000" points="269.12,-627 374.62,-627"/>
<text xml:space="preserve" text-anchor="middle" x="293.25" y="-609.7" font-family="Times New Roman,serif" font-size="14.00">LEFT</text>
<polyline fill="none" stroke="#000000" points="317.38,-602.5 317.38,-627"/>
<text xml:space="preserve" text-anchor="middle" x="346" y="-609.7" font-family="Times New Roman,serif" font-size="14.00">RIGHT</text>
</g>
<!-- node000001854cf46140&#45;&gt;node000001854cf47d20 -->
<g id="edge5" class="edge">
<title>node000001854cf46140:se&#45;&gt;node000001854cf47d20</title>
<path fill="none" stroke="black" d="M327.97,-678.31C329.72,-673.59 330.33,-668.36 330.25,-663.13"/>
<polygon fill="black" stroke="black" points="325.05,-676.39 322.68,-686.72 330.97,-680.12 325.05,-676.39"/>
<polygon fill="black" stroke="black" points="333.75,-662.93 329.26,-653.33 326.78,-663.63 333.75,-662.93"/>
</g>
<!-- node000001854cdea990 -->
<g id="node33" class="node">
<title>node000001854cdea990</title>
<path fill="#ffa551" stroke="#000000" d="M563.12,-602.5C563.12,-602.5 644.62,-602.5 644.62,-602.5 650.62,-602.5 656.62,-608.5 656.62,-614.5 656.62,-614.5 656.62,-639.5 656.62,-639.5 656.62,-645.5 650.62,-651.5 644.62,-651.5 644.62,-651.5 563.12,-651.5 563.12,-651.5 557.12,-651.5 551.12,-645.5 551.12,-639.5 551.12,-639.5 551.12,-614.5 551.12,-614.5 551.12,-608.5 557.12,-602.5 563.12,-602.5"/>
<text xml:space="preserve" text-anchor="middle" x="603.88" y="-634.2" font-family="Times New Roman,serif" font-size="14.00">TYPE: =</text>
<polyline fill="none" stroke="#000000" points="551.12,-627 656.62,-627"/>
<text xml:space="preserve" text-anchor="middle" x="575.25" y="-609.7" font-family="Times New Roman,serif" font-size="14.00">LEFT</text>
<polyline fill="none" stroke="#000000" points="599.38,-602.5 599.38,-627"/>
<text xml:space="preserve" text-anchor="middle" x="628" y="-609.7" font-family="Times New Roman,serif" font-size="14.00">RIGHT</text>
</g>
<!-- node000001854cdeabd0&#45;&gt;node000001854cdea990 -->
<g id="edge32" class="edge">
<title>node000001854cdeabd0:sw&#45;&gt;node000001854cdea990</title>
<path fill="none" stroke="black" d="M596.79,-690.43C593.12,-682.16 592.73,-672.35 593.84,-662.99"/>
<polygon fill="black" stroke="black" points="593.76,-692.2 602.27,-698.5 599.54,-688.26 593.76,-692.2"/>
<polygon fill="black" stroke="black" points="597.23,-663.88 595.53,-653.42 590.34,-662.66 597.23,-663.88"/>
</g>
<!-- node000001854cdeaad0 -->
<g id="node34" class="node">
<title>node000001854cdeaad0</title>
<path fill="#dd65c9" stroke="#000000" d="M763.12,-602.5C763.12,-602.5 844.62,-602.5 844.62,-602.5 850.62,-602.5 856.62,-608.5 856.62,-614.5 856.62,-614.5 856.62,-639.5 856.62,-639.5 856.62,-645.5 850.62,-651.5 844.62,-651.5 844.62,-651.5 763.12,-651.5 763.12,-651.5 757.12,-651.5 751.12,-645.5 751.12,-639.5 751.12,-639.5 751.12,-614.5 751.12,-614.5 751.12,-608.5 757.12,-602.5 763.12,-602.5"/>
<text xml:space="preserve" text-anchor="middle" x="803.88" y="-634.2" font-family="Times New Roman,serif" font-size="14.00">TYPE: ;</text>
<polyline fill="none" stroke="#000000" points="751.12,-627 856.62,-627"/>
<text xml:space="preserve" text-anchor="middle" x="775.25" y="-609.7" font-family="Times New Roman,serif" font-size="14.00">LEFT</text>
<polyline fill="none" stroke="#000000" points="799.38,-602.5 799.38,-627"/>
<text xml:space="preserve" text-anchor="middle" x="828" y="-609.7" font-family="Times New Roman,serif" font-size="14.00">RIGHT</text>
</g>
<!-- node000001854cdeabd0&#45;&gt;node000001854cdeaad0 -->
<g id="edge33" class="edge">
<title>node000001854cdeabd0:se&#45;&gt;node000001854cdeaad0</title>
<path fill="none" stroke="black" d="M716.86,-691.86C730.03,-679.7 744.81,-668.13 758.4,-658.26"/>
<polygon fill="black" stroke="black" points="714.51,-689.25 709.72,-698.7 719.36,-694.31 714.51,-689.25"/>
<polygon fill="black" stroke="black" points="760.24,-661.25 766.35,-652.59 756.18,-655.55 760.24,-661.25"/>
</g>
<!-- node000001854cf47ca0 -->
<g id="node7" class="node">
<title>node000001854cf47ca0</title>
<path fill="#7dc368" stroke="#000000" d="M67.12,-523C67.12,-523 114.62,-523 114.62,-523 120.62,-523 126.62,-529 126.62,-535 126.62,-535 126.62,-547 126.62,-547 126.62,-553 120.62,-559 114.62,-559 114.62,-559 67.12,-559 67.12,-559 61.12,-559 55.12,-553 55.12,-547 55.12,-547 55.12,-535 55.12,-535 55.12,-529 61.12,-523 67.12,-523"/>
<text xml:space="preserve" text-anchor="middle" x="90.88" y="-536.2" font-family="Times New Roman,serif" font-size="14.00">TYPE: int</text>
</g>
<!-- node000001854cf47c60&#45;&gt;node000001854cf47ca0 -->
<g id="edge6" class="edge">
<title>node000001854cf47c60:se&#45;&gt;node000001854cf47ca0</title>
<path fill="none" stroke="black" d="M144.77,-598.03C146.2,-587.68 137.21,-576.29 126.18,-566.5"/>
<polygon fill="black" stroke="black" points="141.79,-596.19 140.21,-606.66 147.98,-599.46 141.79,-596.19"/>
<polygon fill="black" stroke="black" points="128.61,-563.97 118.66,-560.34 124.17,-569.38 128.61,-563.97"/>
</g>
<!-- node000001854cf47d60 -->
<g id="node9" class="node">
<title>node000001854cf47d60</title>
<path fill="#ffa551" stroke="#000000" d="M163.12,-516.5C163.12,-516.5 244.62,-516.5 244.62,-516.5 250.62,-516.5 256.62,-522.5 256.62,-528.5 256.62,-528.5 256.62,-553.5 256.62,-553.5 256.62,-559.5 250.62,-565.5 244.62,-565.5 244.62,-565.5 163.12,-565.5 163.12,-565.5 157.12,-565.5 151.12,-559.5 151.12,-553.5 151.12,-553.5 151.12,-528.5 151.12,-528.5 151.12,-522.5 157.12,-516.5 163.12,-516.5"/>
<text xml:space="preserve" text-anchor="middle" x="203.88" y="-548.2" font-family="Times New Roman,serif" font-size="14.00">TYPE: =</text>
<polyline fill="none" stroke="#000000" points="151.12,-541 256.62,-541"/>
<text xml:space="preserve" text-anchor="middle" x="175.25" y="-523.7" font-family="Times New Roman,serif" font-size="14.00">LEFT</text>
<polyline fill="none" stroke="#000000" points="199.38,-516.5 199.38,-541"/>
<text xml:space="preserve" text-anchor="middle" x="228" y="-523.7" font-family="Times New Roman,serif" font-size="14.00">RIGHT</text>
</g>
<!-- node000001854cf47d20&#45;&gt;node000001854cf47d60 -->
<g id="edge8" class="edge">
<title>node000001854cf47d20:sw&#45;&gt;node000001854cf47d60</title>
<path fill="none" stroke="black" d="M261.13,-594.14C253.82,-587.04 246.18,-579.89 238.95,-573.26"/>
<polygon fill="black" stroke="black" points="258.46,-596.42 268.05,-600.94 263.37,-591.43 258.46,-596.42"/>
<polygon fill="black" stroke="black" points="241.57,-570.91 231.82,-566.76 236.85,-576.08 241.57,-570.91"/>
</g>
<!-- node000001854cf47e60 -->
<g id="node10" class="node">
<title>node000001854cf47e60</title>
<path fill="#dd65c9" stroke="#000000" d="M379.12,-516.5C379.12,-516.5 460.62,-516.5 460.62,-516.5 466.62,-516.5 472.62,-522.5 472.62,-528.5 472.62,-528.5 472.62,-553.5 472.62,-553.5 472.62,-559.5 466.62,-565.5 460.62,-565.5 460.62,-565.5 379.12,-565.5 379.12,-565.5 373.12,-565.5 367.12,-559.5 367.12,-553.5 367.12,-553.5 367.12,-528.5 367.12,-528.5 367.12,-522.5 373.12,-516.5 379.12,-516.5"/>
<text xml:space="preserve" text-anchor="middle" x="419.88" y="-548.2" font-family="Times New Roman,serif" font-size="14.00">TYPE: ;</text>
<polyline fill="none" stroke="#000000" points="367.12,-541 472.62,-541"/>
<text xml:space="preserve" text-anchor="middle" x="391.25" y="-523.7" font-family="Times New Roman,serif" font-size="14.00">LEFT</text>
<polyline fill="none" stroke="#000000" points="415.38,-516.5 415.38,-541"/>
<text xml:space="preserve" text-anchor="middle" x="444" y="-523.7" font-family="Times New Roman,serif" font-size="14.00">RIGHT</text>
</g>
<!-- node000001854cf47d20&#45;&gt;node000001854cf47e60 -->
<g id="edge9" class="edge">
<title>node000001854cf47d20:se&#45;&gt;node000001854cf47e60</title>
<path fill="none" stroke="black" d="M382.5,-593.61C387.92,-587.49 393.11,-580.96 397.81,-574.68"/>
<polygon fill="black" stroke="black" points="379.95,-591.21 375.66,-600.9 385.06,-596 379.95,-591.21"/>
<polygon fill="black" stroke="black" points="400.37,-577.1 403.41,-566.95 394.71,-572.99 400.37,-577.1"/>
</g>
<!-- node000001854cf47ce0 -->
<g id="node8" class="node">
<title>node000001854cf47ce0</title>
<path fill="#8791ff" stroke="#000000" d="M12,-430.5C12,-430.5 85.75,-430.5 85.75,-430.5 91.75,-430.5 97.75,-436.5 97.75,-442.5 97.75,-442.5 97.75,-467.5 97.75,-467.5 97.75,-473.5 91.75,-479.5 85.75,-479.5 85.75,-479.5 12,-479.5 12,-479.5 6,-479.5 0,-473.5 0,-467.5 0,-467.5 0,-442.5 0,-442.5 0,-436.5 6,-430.5 12,-430.5"/>
<text xml:space="preserve" text-anchor="middle" x="48.88" y="-462.2" font-family="Times New Roman,serif" font-size="14.00">TYPE: IDENT</text>
<polyline fill="none" stroke="#000000" points="0,-455 97.75,-455"/>
<text xml:space="preserve" text-anchor="middle" x="48.88" y="-437.7" font-family="Times New Roman,serif" font-size="14.00">VALUE: зек</text>
</g>
<!-- node000001854cf47ca0&#45;&gt;node000001854cf47ce0 -->
<g id="edge7" class="edge">
<title>node000001854cf47ca0:sw&#45;&gt;node000001854cf47ce0</title>
<path fill="none" stroke="black" d="M48.58,-512.56C45.49,-506.02 44.21,-498.52 43.96,-491.16"/>
<polygon fill="black" stroke="black" points="45.68,-514.54 54.26,-520.76 51.44,-510.55 45.68,-514.54"/>
<polygon fill="black" stroke="black" points="47.45,-491.5 44.25,-481.41 40.45,-491.3 47.45,-491.5"/>
</g>
<!-- node000001854cf47da0 -->
<g id="node11" class="node">
<title>node000001854cf47da0</title>
<path fill="#7dc368" stroke="#000000" d="M128.12,-437C128.12,-437 175.62,-437 175.62,-437 181.62,-437 187.62,-443 187.62,-449 187.62,-449 187.62,-461 187.62,-461 187.62,-467 181.62,-473 175.62,-473 175.62,-473 128.12,-473 128.12,-473 122.12,-473 116.12,-467 116.12,-461 116.12,-461 116.12,-449 116.12,-449 116.12,-443 122.12,-437 128.12,-437"/>
<text xml:space="preserve" text-anchor="middle" x="151.88" y="-450.2" font-family="Times New Roman,serif" font-size="14.00">TYPE: int</text>
</g>
<!-- node000001854cf47d60&#45;&gt;node000001854cf47da0 -->
<g id="edge10" class="edge">
<title>node000001854cf47d60:sw&#45;&gt;node000001854cf47da0</title>
<path fill="none" stroke="black" d="M145.09,-506.37C142.65,-499.63 142.54,-491.9 143.49,-484.54"/>
<polygon fill="black" stroke="black" points="142.05,-508.1 150.32,-514.72 147.98,-504.38 142.05,-508.1"/>
<polygon fill="black" stroke="black" points="146.88,-485.46 145.4,-474.96 140.01,-484.09 146.88,-485.46"/>
</g>
<!-- node000001854cf47e20 -->
<g id="node12" class="node">
<title>node000001854cf47e20</title>
<path fill="#51ff51" stroke="#000000" d="M220.12,-430.5C220.12,-430.5 285.62,-430.5 285.62,-430.5 291.62,-430.5 297.62,-436.5 297.62,-442.5 297.62,-442.5 297.62,-467.5 297.62,-467.5 297.62,-473.5 291.62,-479.5 285.62,-479.5 285.62,-479.5 220.12,-479.5 220.12,-479.5 214.12,-479.5 208.12,-473.5 208.12,-467.5 208.12,-467.5 208.12,-442.5 208.12,-442.5 208.12,-436.5 214.12,-430.5 220.12,-430.5"/>
<text xml:space="preserve" text-anchor="middle" x="252.88" y="-462.2" font-family="Times New Roman,serif" font-size="14.00">TYPE: NUM</text>
<polyline fill="none" stroke="#000000" points="208.12,-455 297.62,-455"/>
<text xml:space="preserve" text-anchor="middle" x="252.88" y="-437.7" font-family="Times New Roman,serif" font-size="14.00">VALUE: 1</text>
</g>
<!-- node000001854cf47d60&#45;&gt;node000001854cf47e20 -->
<g id="edge11" class="edge">
<title>node000001854cf47d60:se&#45;&gt;node000001854cf47e20</title>
<path fill="none" stroke="black" d="M262.51,-506.3C264.07,-501.57 264.4,-496.35 263.98,-491.11"/>
<polygon fill="black" stroke="black" points="259.61,-504.34 257.41,-514.71 265.59,-507.97 259.61,-504.34"/>
<polygon fill="black" stroke="black" points="267.44,-490.57 262.32,-481.3 260.54,-491.74 267.44,-490.57"/>
</g>
<!-- node000001854cf47ea0 -->
<g id="node14" class="node">
<title>node000001854cf47ea0</title>
<path fill="#313ef4" stroke="#000000" d="M328.12,-430.5C328.12,-430.5 409.62,-430.5 409.62,-430.5 415.62,-430.5 421.62,-436.5 421.62,-442.5 421.62,-442.5 421.62,-467.5 421.62,-467.5 421.62,-473.5 415.62,-479.5 409.62,-479.5 409.62,-479.5 328.12,-479.5 328.12,-479.5 322.12,-479.5 316.12,-473.5 316.12,-467.5 316.12,-467.5 316.12,-442.5 316.12,-442.5 316.12,-436.5 322.12,-430.5 328.12,-430.5"/>
<text xml:space="preserve" text-anchor="middle" x="368.88" y="-462.2" font-family="Times New Roman,serif" font-size="14.00">TYPE: while</text>
<polyline fill="none" stroke="#000000" points="316.12,-455 421.62,-455"/>
<text xml:space="preserve" text-anchor="middle" x="340.25" y="-437.7" font-family="Times New Roman,serif" font-size="14.00">LEFT</text>
<polyline fill="none" stroke="#000000" points="364.38,-430.5 364.38,-455"/>
<text xml:space="preserve" text-anchor="middle" x="393" y="-437.7" font-family="Times New Roman,serif" font-size="14.00">RIGHT</text>
</g>
<!-- node000001854cf47e60&#45;&gt;node000001854cf47ea0 -->
<g id="edge13" class="edge">
<title>node000001854cf47e60:sw&#45;&gt;node000001854cf47ea0</title>
<path fill="none" stroke="black" d="M361.13,-506.31C359.47,-501.58 358.99,-496.36 359.23,-491.12"/>
<polygon fill="black" stroke="black" points="358.09,-508.05 366.33,-514.71 364.04,-504.37 358.09,-508.05"/>
<polygon fill="black" stroke="black" points="362.68,-491.69 360.53,-481.32 355.75,-490.77 362.68,-491.69"/>
</g>
<!-- node000001854cdea8d0 -->
<g id="node15" class="node">
<title>node000001854cdea8d0</title>
<path fill="#dd65c9" stroke="#000000" d="M453.38,-437C453.38,-437 490.38,-437 490.38,-437 496.38,-437 502.38,-443 502.38,-449 502.38,-449 502.38,-461 502.38,-461 502.38,-467 496.38,-473 490.38,-473 490.38,-473 453.38,-473 453.38,-473 447.38,-473 441.38,-467 441.38,-461 441.38,-461 441.38,-449 441.38,-449 441.38,-443 447.38,-437 453.38,-437"/>
<text xml:space="preserve" text-anchor="middle" x="471.88" y="-450.2" font-family="Times New Roman,serif" font-size="14.00">TYPE: ;</text>
</g>
<!-- node000001854cf47e60&#45;&gt;node000001854cdea8d0 -->
<g id="edge14" class="edge">
<title>node000001854cf47e60:se&#45;&gt;node000001854cdea8d0</title>
<path fill="none" stroke="black" d="M478.66,-506.37C481.1,-499.63 481.21,-491.9 480.26,-484.54"/>
<polygon fill="black" stroke="black" points="475.77,-504.38 473.43,-514.72 481.7,-508.1 475.77,-504.38"/>
<polygon fill="black" stroke="black" points="483.74,-484.09 478.35,-474.96 476.87,-485.46 483.74,-484.09"/>
</g>
<!-- node000001854cf47de0 -->
<g id="node13" class="node">
<title>node000001854cf47de0</title>
<path fill="#8791ff" stroke="#000000" d="M51.5,-344.5C51.5,-344.5 140.25,-344.5 140.25,-344.5 146.25,-344.5 152.25,-350.5 152.25,-356.5 152.25,-356.5 152.25,-381.5 152.25,-381.5 152.25,-387.5 146.25,-393.5 140.25,-393.5 140.25,-393.5 51.5,-393.5 51.5,-393.5 45.5,-393.5 39.5,-387.5 39.5,-381.5 39.5,-381.5 39.5,-356.5 39.5,-356.5 39.5,-350.5 45.5,-344.5 51.5,-344.5"/>
<text xml:space="preserve" text-anchor="middle" x="95.88" y="-376.2" font-family="Times New Roman,serif" font-size="14.00">TYPE: IDENT</text>
<polyline fill="none" stroke="#000000" points="39.5,-369 152.25,-369"/>
<text xml:space="preserve" text-anchor="middle" x="95.88" y="-351.7" font-family="Times New Roman,serif" font-size="14.00">VALUE: Олегыч</text>
</g>
<!-- node000001854cf47da0&#45;&gt;node000001854cf47de0 -->
<g id="edge12" class="edge">
<title>node000001854cf47da0:sw&#45;&gt;node000001854cf47de0</title>
<path fill="none" stroke="black" d="M109.08,-427.02C104.87,-420.25 102,-412.54 100.03,-405.02"/>
<polygon fill="black" stroke="black" points="106.26,-429.1 115.19,-434.81 111.77,-424.78 106.26,-429.1"/>
<polygon fill="black" stroke="black" points="103.49,-404.45 98.01,-395.38 96.64,-405.89 103.49,-404.45"/>
</g>
<!-- node000001854cf47ee0 -->
<g id="node16" class="node">
<title>node000001854cf47ee0</title>
<path fill="#ffa551" stroke="#000000" d="M182.12,-344.5C182.12,-344.5 263.62,-344.5 263.62,-344.5 269.62,-344.5 275.62,-350.5 275.62,-356.5 275.62,-356.5 275.62,-381.5 275.62,-381.5 275.62,-387.5 269.62,-393.5 263.62,-393.5 263.62,-393.5 182.12,-393.5 182.12,-393.5 176.12,-393.5 170.12,-387.5 170.12,-381.5 170.12,-381.5 170.12,-356.5 170.12,-356.5 170.12,-350.5 176.12,-344.5 182.12,-344.5"/>
<text xml:space="preserve" text-anchor="middle" x="222.88" y="-376.2" font-family="Times New Roman,serif" font-size="14.00">TYPE: &gt;</text>
<polyline fill="none" stroke="#000000" points="170.12,-369 275.62,-369"/>
<text xml:space="preserve" text-anchor="middle" x="194.25" y="-351.7" font-family="Times New Roman,serif" font-size="14.00">LEFT</text>
<polyline fill="none" stroke="#000000" points="218.38,-344.5 218.38,-369"/>
<text xml:space="preserve" text-anchor="middle" x="247" y="-351.7" font-family="Times New Roman,serif" font-size="14.00">RIGHT</text>
</g>
<!-- node000001854cf47ea0&#45;&gt;node000001854cf47ee0 -->
<g id="edge15" class="edge">
<title>node000001854cf47ea0:sw&#45;&gt;node000001854cf47ee0</title>
<path fill="none" stroke="black" d="M307.95,-422.36C298.65,-414.19 288.3,-406.67 278.12,-400.03"/>
<polygon fill="black" stroke="black" points="305.33,-424.69 315.02,-428.97 310.11,-419.58 305.33,-424.69"/>
<polygon fill="black" stroke="black" points="280.05,-397.11 269.72,-394.75 276.32,-403.03 280.05,-397.11"/>
</g>
<!-- node000001854cdeab90 -->
<g id="node17" class="node">
<title>node000001854cdeab90</title>
<path fill="#dd65c9" stroke="#000000" d="M381.12,-344.5C381.12,-344.5 462.62,-344.5 462.62,-344.5 468.62,-344.5 474.62,-350.5 474.62,-356.5 474.62,-356.5 474.62,-381.5 474.62,-381.5 474.62,-387.5 468.62,-393.5 462.62,-393.5 462.62,-393.5 381.12,-393.5 381.12,-393.5 375.12,-393.5 369.12,-387.5 369.12,-381.5 369.12,-381.5 369.12,-356.5 369.12,-356.5 369.12,-350.5 375.12,-344.5 381.12,-344.5"/>
<text xml:space="preserve" text-anchor="middle" x="421.88" y="-376.2" font-family="Times New Roman,serif" font-size="14.00">TYPE: ;</text>
<polyline fill="none" stroke="#000000" points="369.12,-369 474.62,-369"/>
<text xml:space="preserve" text-anchor="middle" x="393.25" y="-351.7" font-family="Times New Roman,serif" font-size="14.00">LEFT</text>
<polyline fill="none" stroke="#000000" points="417.38,-344.5 417.38,-369"/>
<text xml:space="preserve" text-anchor="middle" x="446" y="-351.7" font-family="Times New Roman,serif" font-size="14.00">RIGHT</text>
</g>
<!-- node000001854cf47ea0&#45;&gt;node000001854cdeab90 -->
<g id="edge16" class="edge">
<title>node000001854cf47ea0:se&#45;&gt;node000001854cdeab90</title>
<path fill="none" stroke="black" d="M427.74,-420.31C429.49,-415.59 430.13,-410.36 430.07,-405.13"/>
<polygon fill="black" stroke="black" points="424.81,-418.4 422.43,-428.72 430.73,-422.13 424.81,-418.4"/>
<polygon fill="black" stroke="black" points="433.57,-404.95 429.12,-395.33 426.6,-405.62 433.57,-404.95"/>
</g>
<!-- node000001854cdea950 -->
<g id="node31" class="node">
<title>node000001854cdea950</title>
<path fill="#ec4343" stroke="#000000" d="M548.12,-351C548.12,-351 613.62,-351 613.62,-351 619.62,-351 625.62,-357 625.62,-363 625.62,-363 625.62,-375 625.62,-375 625.62,-381 619.62,-387 613.62,-387 613.62,-387 548.12,-387 548.12,-387 542.12,-387 536.12,-381 536.12,-375 536.12,-375 536.12,-363 536.12,-363 536.12,-357 542.12,-351 548.12,-351"/>
<text xml:space="preserve" text-anchor="middle" x="580.88" y="-364.2" font-family="Times New Roman,serif" font-size="14.00">TYPE: return</text>
</g>
<!-- node000001854cdea8d0&#45;&gt;node000001854cdea950 -->
<g id="edge30" class="edge">
<title>node000001854cdea8d0:sw&#45;&gt;node000001854cdea950</title>
<path fill="none" stroke="black" d="M441.43,-424.76C451.57,-411.91 490.72,-397.15 524.96,-386.19"/>
<polygon fill="black" stroke="black" points="437.93,-424.47 441.38,-434.49 444.93,-424.5 437.93,-424.47"/>
<polygon fill="black" stroke="black" points="525.92,-389.56 534.42,-383.23 523.83,-382.88 525.92,-389.56"/>
</g>
<!-- node000001854cf47f20 -->
<g id="node18" class="node">
<title>node000001854cf47f20</title>
<path fill="#8791ff" stroke="#000000" d="M105,-258.5C105,-258.5 178.75,-258.5 178.75,-258.5 184.75,-258.5 190.75,-264.5 190.75,-270.5 190.75,-270.5 190.75,-295.5 190.75,-295.5 190.75,-301.5 184.75,-307.5 178.75,-307.5 178.75,-307.5 105,-307.5 105,-307.5 99,-307.5 93,-301.5 93,-295.5 93,-295.5 93,-270.5 93,-270.5 93,-264.5 99,-258.5 105,-258.5"/>
<text xml:space="preserve" text-anchor="middle" x="141.88" y="-290.2" font-family="Times New Roman,serif" font-size="14.00">TYPE: IDENT</text>
<polyline fill="none" stroke="#000000" points="93,-283 190.75,-283"/>
<text xml:space="preserve" text-anchor="middle" x="141.88" y="-265.7" font-family="Times New Roman,serif" font-size="14.00">VALUE: зек</text>
</g>
<!-- node000001854cf47ee0&#45;&gt;node000001854cf47f20 -->
<g id="edge17" class="edge">
<title>node000001854cf47ee0:sw&#45;&gt;node000001854cf47f20</title>
<path fill="none" stroke="black" d="M162.84,-335.32C159.01,-329.95 155.78,-324.05 153.09,-318.22"/>
<polygon fill="black" stroke="black" points="160.04,-337.43 169.15,-342.84 165.41,-332.93 160.04,-337.43"/>
<polygon fill="black" stroke="black" points="156.47,-317.24 149.41,-309.34 150.01,-319.92 156.47,-317.24"/>
</g>
<!-- node000001854cdea910 -->
<g id="node19" class="node">
<title>node000001854cdea910</title>
<path fill="#51ff51" stroke="#000000" d="M221.12,-258.5C221.12,-258.5 286.62,-258.5 286.62,-258.5 292.62,-258.5 298.62,-264.5 298.62,-270.5 298.62,-270.5 298.62,-295.5 298.62,-295.5 298.62,-301.5 292.62,-307.5 286.62,-307.5 286.62,-307.5 221.12,-307.5 221.12,-307.5 215.12,-307.5 209.12,-301.5 209.12,-295.5 209.12,-295.5 209.12,-270.5 209.12,-270.5 209.12,-264.5 215.12,-258.5 221.12,-258.5"/>
<text xml:space="preserve" text-anchor="middle" x="253.88" y="-290.2" font-family="Times New Roman,serif" font-size="14.00">TYPE: NUM</text>
<polyline fill="none" stroke="#000000" points="209.12,-283 298.62,-283"/>
<text xml:space="preserve" text-anchor="middle" x="253.88" y="-265.7" font-family="Times New Roman,serif" font-size="14.00">VALUE: 0</text>
</g>
<!-- node000001854cf47ee0&#45;&gt;node000001854cdea910 -->
<g id="edge18" class="edge">
<title>node000001854cf47ee0:se&#45;&gt;node000001854cdea910</title>
<path fill="none" stroke="black" d="M280.83,-333.82C281.59,-328.86 280.49,-323.45 278.35,-318.08"/>
<polygon fill="black" stroke="black" points="277.75,-332.16 276.31,-342.65 283.98,-335.34 277.75,-332.16"/>
<polygon fill="black" stroke="black" points="281.53,-316.62 273.88,-309.3 275.3,-319.8 281.53,-316.62"/>
</g>
<!-- node000001854cdeab10 -->
<g id="node20" class="node">
<title>node000001854cdeab10</title>
<path fill="#ffa551" stroke="#000000" d="M329.12,-258.5C329.12,-258.5 410.62,-258.5 410.62,-258.5 416.62,-258.5 422.62,-264.5 422.62,-270.5 422.62,-270.5 422.62,-295.5 422.62,-295.5 422.62,-301.5 416.62,-307.5 410.62,-307.5 410.62,-307.5 329.12,-307.5 329.12,-307.5 323.12,-307.5 317.12,-301.5 317.12,-295.5 317.12,-295.5 317.12,-270.5 317.12,-270.5 317.12,-264.5 323.12,-258.5 329.12,-258.5"/>
<text xml:space="preserve" text-anchor="middle" x="369.88" y="-290.2" font-family="Times New Roman,serif" font-size="14.00">TYPE: =</text>
<polyline fill="none" stroke="#000000" points="317.12,-283 422.62,-283"/>
<text xml:space="preserve" text-anchor="middle" x="341.25" y="-265.7" font-family="Times New Roman,serif" font-size="14.00">LEFT</text>
<polyline fill="none" stroke="#000000" points="365.38,-258.5 365.38,-283"/>
<text xml:space="preserve" text-anchor="middle" x="394" y="-265.7" font-family="Times New Roman,serif" font-size="14.00">RIGHT</text>
</g>
<!-- node000001854cdeab90&#45;&gt;node000001854cdeab10 -->
<g id="edge19" class="edge">
<title>node000001854cdeab90:sw&#45;&gt;node000001854cdeab10</title>
<path fill="none" stroke="black" d="M363.07,-334.31C361.36,-329.59 360.81,-324.36 360.96,-319.13"/>
<polygon fill="black" stroke="black" points="360.06,-336.09 368.32,-342.72 365.99,-332.38 360.06,-336.09"/>
<polygon fill="black" stroke="black" points="364.42,-319.66 362.08,-309.32 357.47,-318.86 364.42,-319.66"/>
</g>
<!-- node000001854cdeab50 -->
<g id="node21" class="node">
<title>node000001854cdeab50</title>
<path fill="#dd65c9" stroke="#000000" d="M455.38,-265C455.38,-265 492.38,-265 492.38,-265 498.38,-265 504.38,-271 504.38,-277 504.38,-277 504.38,-289 504.38,-289 504.38,-295 498.38,-301 492.38,-301 492.38,-301 455.38,-301 455.38,-301 449.38,-301 443.38,-295 443.38,-289 443.38,-289 443.38,-277 443.38,-277 443.38,-271 449.38,-265 455.38,-265"/>
<text xml:space="preserve" text-anchor="middle" x="473.88" y="-278.2" font-family="Times New Roman,serif" font-size="14.00">TYPE: ;</text>
</g>
<!-- node000001854cdeab90&#45;&gt;node000001854cdeab50 -->
<g id="edge20" class="edge">
<title>node000001854cdeab90:se&#45;&gt;node000001854cdeab50</title>
<path fill="none" stroke="black" d="M480.66,-334.37C483.1,-327.63 483.21,-319.9 482.26,-312.54"/>
<polygon fill="black" stroke="black" points="477.77,-332.38 475.43,-342.72 483.7,-336.1 477.77,-332.38"/>
<polygon fill="black" stroke="black" points="485.74,-312.09 480.35,-302.96 478.87,-313.46 485.74,-312.09"/>
</g>
<!-- node000001854cdeac90 -->
<g id="node22" class="node">
<title>node000001854cdeac90</title>
<path fill="#8791ff" stroke="#000000" d="M250.5,-172.5C250.5,-172.5 339.25,-172.5 339.25,-172.5 345.25,-172.5 351.25,-178.5 351.25,-184.5 351.25,-184.5 351.25,-209.5 351.25,-209.5 351.25,-215.5 345.25,-221.5 339.25,-221.5 339.25,-221.5 250.5,-221.5 250.5,-221.5 244.5,-221.5 238.5,-215.5 238.5,-209.5 238.5,-209.5 238.5,-184.5 238.5,-184.5 238.5,-178.5 244.5,-172.5 250.5,-172.5"/>
<text xml:space="preserve" text-anchor="middle" x="294.88" y="-204.2" font-family="Times New Roman,serif" font-size="14.00">TYPE: IDENT</text>
<polyline fill="none" stroke="#000000" points="238.5,-197 351.25,-197"/>
<text xml:space="preserve" text-anchor="middle" x="294.88" y="-179.7" font-family="Times New Roman,serif" font-size="14.00">VALUE: Олегыч</text>
</g>
<!-- node000001854cdeab10&#45;&gt;node000001854cdeac90 -->
<g id="edge21" class="edge">
<title>node000001854cdeab10:sw&#45;&gt;node000001854cdeac90</title>
<path fill="none" stroke="black" d="M310.09,-249.18C306.76,-244.02 304.15,-238.32 302.1,-232.64"/>
<polygon fill="black" stroke="black" points="307.21,-251.18 316.18,-256.82 312.68,-246.82 307.21,-251.18"/>
<polygon fill="black" stroke="black" points="305.54,-231.92 299.27,-223.38 298.85,-233.97 305.54,-231.92"/>
</g>
<!-- node000001854cdead50 -->
<g id="node23" class="node">
<title>node000001854cdead50</title>
<path fill="#ffa551" stroke="#000000" d="M381.12,-172.5C381.12,-172.5 462.62,-172.5 462.62,-172.5 468.62,-172.5 474.62,-178.5 474.62,-184.5 474.62,-184.5 474.62,-209.5 474.62,-209.5 474.62,-215.5 468.62,-221.5 462.62,-221.5 462.62,-221.5 381.12,-221.5 381.12,-221.5 375.12,-221.5 369.12,-215.5 369.12,-209.5 369.12,-209.5 369.12,-184.5 369.12,-184.5 369.12,-178.5 375.12,-172.5 381.12,-172.5"/>
<text xml:space="preserve" text-anchor="middle" x="421.88" y="-204.2" font-family="Times New Roman,serif" font-size="14.00">TYPE: *</text>
<polyline fill="none" stroke="#000000" points="369.12,-197 474.62,-197"/>
<text xml:space="preserve" text-anchor="middle" x="393.25" y="-179.7" font-family="Times New Roman,serif" font-size="14.00">LEFT</text>
<polyline fill="none" stroke="#000000" points="417.38,-172.5 417.38,-197"/>
<text xml:space="preserve" text-anchor="middle" x="446" y="-179.7" font-family="Times New Roman,serif" font-size="14.00">RIGHT</text>
</g>
<!-- node000001854cdeab10&#45;&gt;node000001854cdead50 -->
<g id="edge22" class="edge">
<title>node000001854cdeab10:se&#45;&gt;node000001854cdead50</title>
<path fill="none" stroke="black" d="M428.68,-248.31C430.39,-243.59 430.94,-238.36 430.79,-233.13"/>
<polygon fill="black" stroke="black" points="425.76,-246.38 423.43,-256.72 431.69,-250.09 425.76,-246.38"/>
<polygon fill="black" stroke="black" points="434.28,-232.86 429.67,-223.32 427.33,-233.66 434.28,-232.86"/>
</g>
<!-- node000001854cdea810 -->
<g id="node26" class="node">
<title>node000001854cdea810</title>
<path fill="#ffa551" stroke="#000000" d="M601.12,-172.5C601.12,-172.5 682.62,-172.5 682.62,-172.5 688.62,-172.5 694.62,-178.5 694.62,-184.5 694.62,-184.5 694.62,-209.5 694.62,-209.5 694.62,-215.5 688.62,-221.5 682.62,-221.5 682.62,-221.5 601.12,-221.5 601.12,-221.5 595.12,-221.5 589.12,-215.5 589.12,-209.5 589.12,-209.5 589.12,-184.5 589.12,-184.5 589.12,-178.5 595.12,-172.5 601.12,-172.5"/>
<text xml:space="preserve" text-anchor="middle" x="641.88" y="-204.2" font-family="Times New Roman,serif" font-size="14.00">TYPE: =</text>
<polyline fill="none" stroke="#000000" points="589.12,-197 694.62,-197"/>
<text xml:space="preserve" text-anchor="middle" x="613.25" y="-179.7" font-family="Times New Roman,serif" font-size="14.00">LEFT</text>
<polyline fill="none" stroke="#000000" points="637.38,-172.5 637.38,-197"/>
<text xml:space="preserve" text-anchor="middle" x="666" y="-179.7" font-family="Times New Roman,serif" font-size="14.00">RIGHT</text>
</g>
<!-- node000001854cdeab50&#45;&gt;node000001854cdea810 -->
<g id="edge25" class="edge">
<title>node000001854cdeab50:sw&#45;&gt;node000001854cdea810</title>
<path fill="none" stroke="black" d="M441.77,-252.69C453.18,-235.39 523.33,-219.1 577.39,-208.88"/>
<polygon fill="black" stroke="black" points="438.3,-253.09 443.16,-262.5 445.23,-252.11 438.3,-253.09"/>
<polygon fill="black" stroke="black" points="577.97,-212.33 587.16,-207.07 576.69,-205.45 577.97,-212.33"/>
</g>
<!-- node000001854cdea7d0 -->
<g id="node24" class="node">
<title>node000001854cdea7d0</title>
<path fill="#8791ff" stroke="#000000" d="M306.5,-86.5C306.5,-86.5 395.25,-86.5 395.25,-86.5 401.25,-86.5 407.25,-92.5 407.25,-98.5 407.25,-98.5 407.25,-123.5 407.25,-123.5 407.25,-129.5 401.25,-135.5 395.25,-135.5 395.25,-135.5 306.5,-135.5 306.5,-135.5 300.5,-135.5 294.5,-129.5 294.5,-123.5 294.5,-123.5 294.5,-98.5 294.5,-98.5 294.5,-92.5 300.5,-86.5 306.5,-86.5"/>
<text xml:space="preserve" text-anchor="middle" x="350.88" y="-118.2" font-family="Times New Roman,serif" font-size="14.00">TYPE: IDENT</text>
<polyline fill="none" stroke="#000000" points="294.5,-111 407.25,-111"/>
<text xml:space="preserve" text-anchor="middle" x="350.88" y="-93.7" font-family="Times New Roman,serif" font-size="14.00">VALUE: Олегыч</text>
</g>
<!-- node000001854cdead50&#45;&gt;node000001854cdea7d0 -->
<g id="edge23" class="edge">
<title>node000001854cdead50:sw&#45;&gt;node000001854cdea7d0</title>
<path fill="none" stroke="black" d="M362.19,-162.95C359.22,-157.95 357.03,-152.43 355.4,-146.92"/>
<polygon fill="black" stroke="black" points="359.34,-164.99 368.2,-170.8 364.9,-160.73 359.34,-164.99"/>
<polygon fill="black" stroke="black" points="358.83,-146.21 353.16,-137.27 352.02,-147.8 358.83,-146.21"/>
</g>
<!-- node000001854cdeaa50 -->
<g id="node25" class="node">
<title>node000001854cdeaa50</title>
<path fill="#8791ff" stroke="#000000" d="M437,-86.5C437,-86.5 510.75,-86.5 510.75,-86.5 516.75,-86.5 522.75,-92.5 522.75,-98.5 522.75,-98.5 522.75,-123.5 522.75,-123.5 522.75,-129.5 516.75,-135.5 510.75,-135.5 510.75,-135.5 437,-135.5 437,-135.5 431,-135.5 425,-129.5 425,-123.5 425,-123.5 425,-98.5 425,-98.5 425,-92.5 431,-86.5 437,-86.5"/>
<text xml:space="preserve" text-anchor="middle" x="473.88" y="-118.2" font-family="Times New Roman,serif" font-size="14.00">TYPE: IDENT</text>
<polyline fill="none" stroke="#000000" points="425,-111 522.75,-111"/>
<text xml:space="preserve" text-anchor="middle" x="473.88" y="-93.7" font-family="Times New Roman,serif" font-size="14.00">VALUE: зек</text>
</g>
<!-- node000001854cdead50&#45;&gt;node000001854cdeaa50 -->
<g id="edge24" class="edge">
<title>node000001854cdead50:se&#45;&gt;node000001854cdeaa50</title>
<path fill="none" stroke="black" d="M480.68,-162.31C482.39,-157.59 482.94,-152.36 482.79,-147.13"/>
<polygon fill="black" stroke="black" points="477.76,-160.38 475.43,-170.72 483.69,-164.09 477.76,-160.38"/>
<polygon fill="black" stroke="black" points="486.28,-146.86 481.67,-137.32 479.33,-147.66 486.28,-146.86"/>
</g>
<!-- node000001854cdea790 -->
<g id="node27" class="node">
<title>node000001854cdea790</title>
<path fill="#8791ff" stroke="#000000" d="M553,-86.5C553,-86.5 626.75,-86.5 626.75,-86.5 632.75,-86.5 638.75,-92.5 638.75,-98.5 638.75,-98.5 638.75,-123.5 638.75,-123.5 638.75,-129.5 632.75,-135.5 626.75,-135.5 626.75,-135.5 553,-135.5 553,-135.5 547,-135.5 541,-129.5 541,-123.5 541,-123.5 541,-98.5 541,-98.5 541,-92.5 547,-86.5 553,-86.5"/>
<text xml:space="preserve" text-anchor="middle" x="589.88" y="-118.2" font-family="Times New Roman,serif" font-size="14.00">TYPE: IDENT</text>
<polyline fill="none" stroke="#000000" points="541,-111 638.75,-111"/>
<text xml:space="preserve" text-anchor="middle" x="589.88" y="-93.7" font-family="Times New Roman,serif" font-size="14.00">VALUE: зек</text>
</g>
<!-- node000001854cdea810&#45;&gt;node000001854cdea790 -->
<g id="edge26" class="edge">
<title>node000001854cdea810:sw&#45;&gt;node000001854cdea790</title>
<path fill="none" stroke="black" d="M583.07,-162.31C581.36,-157.59 580.81,-152.36 580.96,-147.13"/>
<polygon fill="black" stroke="black" points="580.06,-164.09 588.32,-170.72 585.99,-160.38 580.06,-164.09"/>
<polygon fill="black" stroke="black" points="584.42,-147.66 582.08,-137.32 577.47,-146.86 584.42,-147.66"/>
</g>
<!-- node000001854cdeaed0 -->
<g id="node28" class="node">
<title>node000001854cdeaed0</title>
<path fill="#ffa551" stroke="#000000" d="M669.12,-86.5C669.12,-86.5 750.62,-86.5 750.62,-86.5 756.62,-86.5 762.62,-92.5 762.62,-98.5 762.62,-98.5 762.62,-123.5 762.62,-123.5 762.62,-129.5 756.62,-135.5 750.62,-135.5 750.62,-135.5 669.12,-135.5 669.12,-135.5 663.12,-135.5 657.12,-129.5 657.12,-123.5 657.12,-123.5 657.12,-98.5 657.12,-98.5 657.12,-92.5 663.12,-86.5 669.12,-86.5"/>
<text xml:space="preserve" text-anchor="middle" x="709.88" y="-118.2" font-family="Times New Roman,serif" font-size="14.00">TYPE: &#45;</text>
<polyline fill="none" stroke="#000000" points="657.12,-111 762.62,-111"/>
<text xml:space="preserve" text-anchor="middle" x="681.25" y="-93.7" font-family="Times New Roman,serif" font-size="14.00">LEFT</text>
<polyline fill="none" stroke="#000000" points="705.38,-86.5 705.38,-111"/>
<text xml:space="preserve" text-anchor="middle" x="734" y="-93.7" font-family="Times New Roman,serif" font-size="14.00">RIGHT</text>
</g>
<!-- node000001854cdea810&#45;&gt;node000001854cdeaed0 -->
<g id="edge27" class="edge">
<title>node000001854cdea810:se&#45;&gt;node000001854cdeaed0</title>
<path fill="none" stroke="black" d="M701.48,-162.76C704.22,-157.82 706.13,-152.36 707.45,-146.91"/>
<polygon fill="black" stroke="black" points="698.67,-160.67 695.53,-170.78 704.3,-164.84 698.67,-160.67"/>
<polygon fill="black" stroke="black" points="710.84,-147.84 709.14,-137.38 703.94,-146.61 710.84,-147.84"/>
</g>
<!-- node000001854cdeacd0 -->
<g id="node29" class="node">
<title>node000001854cdeacd0</title>
<path fill="#8791ff" stroke="#000000" d="M617,-0.5C617,-0.5 690.75,-0.5 690.75,-0.5 696.75,-0.5 702.75,-6.5 702.75,-12.5 702.75,-12.5 702.75,-37.5 702.75,-37.5 702.75,-43.5 696.75,-49.5 690.75,-49.5 690.75,-49.5 617,-49.5 617,-49.5 611,-49.5 605,-43.5 605,-37.5 605,-37.5 605,-12.5 605,-12.5 605,-6.5 611,-0.5 617,-0.5"/>
<text xml:space="preserve" text-anchor="middle" x="653.88" y="-32.2" font-family="Times New Roman,serif" font-size="14.00">TYPE: IDENT</text>
<polyline fill="none" stroke="#000000" points="605,-25 702.75,-25"/>
<text xml:space="preserve" text-anchor="middle" x="653.88" y="-7.7" font-family="Times New Roman,serif" font-size="14.00">VALUE: зек</text>
</g>
<!-- node000001854cdeaed0&#45;&gt;node000001854cdeacd0 -->
<g id="edge28" class="edge">
<title>node000001854cdeaed0:sw&#45;&gt;node000001854cdeacd0</title>
<path fill="none" stroke="black" d="M650.94,-76.58C648.97,-71.82 648.07,-66.54 647.85,-61.24"/>
<polygon fill="black" stroke="black" points="647.88,-78.3 656.29,-84.74 653.73,-74.46 647.88,-78.3"/>
<polygon fill="black" stroke="black" points="651.35,-61.46 648.25,-51.32 644.35,-61.17 651.35,-61.46"/>
</g>
<!-- node000001854cdeaa10 -->
<g id="node30" class="node">
<title>node000001854cdeaa10</title>
<path fill="#51ff51" stroke="#000000" d="M733.12,-0.5C733.12,-0.5 798.62,-0.5 798.62,-0.5 804.62,-0.5 810.62,-6.5 810.62,-12.5 810.62,-12.5 810.62,-37.5 810.62,-37.5 810.62,-43.5 804.62,-49.5 798.62,-49.5 798.62,-49.5 733.12,-49.5 733.12,-49.5 727.12,-49.5 721.12,-43.5 721.12,-37.5 721.12,-37.5 721.12,-12.5 721.12,-12.5 721.12,-6.5 727.12,-0.5 733.12,-0.5"/>
<text xml:space="preserve" text-anchor="middle" x="765.88" y="-32.2" font-family="Times New Roman,serif" font-size="14.00">TYPE: NUM</text>
<polyline fill="none" stroke="#000000" points="721.12,-25 810.62,-25"/>
<text xml:space="preserve" text-anchor="middle" x="765.88" y="-7.7" font-family="Times New Roman,serif" font-size="14.00">VALUE: 1</text>
</g>
<!-- node000001854cdeaed0&#45;&gt;node000001854cdeaa10 -->
<g id="edge29" class="edge">
<title>node000001854cdeaed0:se&#45;&gt;node000001854cdeaa10</title>
<path fill="none" stroke="black" d="M768.81,-76.58C770.78,-71.82 771.68,-66.54 771.9,-61.24"/>
<polygon fill="black" stroke="black" points="766.02,-74.46 763.46,-84.74 771.87,-78.3 766.02,-74.46"/>
<polygon fill="black" stroke="black" points="775.4,-61.17 771.5,-51.32 768.4,-61.46 775.4,-61.17"/>
</g>
<!-- node000001854cdeaa90 -->
<g id="node32" class="node">
<title>node000001854cdeaa90</title>
<path fill="#8791ff" stroke="#000000" d="M534.5,-258.5C534.5,-258.5 623.25,-258.5 623.25,-258.5 629.25,-258.5 635.25,-264.5 635.25,-270.5 635.25,-270.5 635.25,-295.5 635.25,-295.5 635.25,-301.5 629.25,-307.5 623.25,-307.5 623.25,-307.5 534.5,-307.5 534.5,-307.5 528.5,-307.5 522.5,-301.5 522.5,-295.5 522.5,-295.5 522.5,-270.5 522.5,-270.5 522.5,-264.5 528.5,-258.5 534.5,-258.5"/>
<text xml:space="preserve" text-anchor="middle" x="578.88" y="-290.2" font-family="Times New Roman,serif" font-size="14.00">TYPE: IDENT</text>
<polyline fill="none" stroke="#000000" points="522.5,-283 635.25,-283"/>
<text xml:space="preserve" text-anchor="middle" x="578.88" y="-265.7" font-family="Times New Roman,serif" font-size="14.00">VALUE: Олегыч</text>
</g>
<!-- node000001854cdea950&#45;&gt;node000001854cdeaa90 -->
<g id="edge31" class="edge">
<title>node000001854cdea950:sw&#45;&gt;node000001854cdeaa90</title>
<path fill="none" stroke="black" d="M530.87,-340.07C529.72,-332.37 534.05,-323.96 540.52,-316.06"/>
<polygon fill="black" stroke="black" points="527.64,-341.46 535.42,-348.66 533.83,-338.19 527.64,-341.46"/>
<polygon fill="black" stroke="black" points="542.98,-318.56 547.2,-308.84 537.84,-313.8 542.98,-318.56"/>
</g>
<!-- node000001854cdeac10 -->
<g id="node35" class="node">
<title>node000001854cdeac10</title>
<path fill="#7dc368" stroke="#000000" d="M530.12,-523C530.12,-523 577.62,-523 577.62,-523 583.62,-523 589.62,-529 589.62,-535 589.62,-535 589.62,-547 589.62,-547 589.62,-553 583.62,-559 577.62,-559 577.62,-559 530.12,-559 530.12,-559 524.12,-559 518.12,-553 518.12,-547 518.12,-547 518.12,-535 518.12,-535 518.12,-529 524.12,-523 530.12,-523"/>
<text xml:space="preserve" text-anchor="middle" x="553.88" y="-536.2" font-family="Times New Roman,serif" font-size="14.00">TYPE: int</text>
</g>
<!-- node000001854cdea990&#45;&gt;node000001854cdeac10 -->
<g id="edge34" class="edge">
<title>node000001854cdea990:sw&#45;&gt;node000001854cdeac10</title>
<path fill="none" stroke="black" d="M545.2,-592.36C542.9,-585.63 543.04,-577.89 544.27,-570.53"/>
<polygon fill="black" stroke="black" points="542.12,-594.02 550.33,-600.71 548.08,-590.36 542.12,-594.02"/>
<polygon fill="black" stroke="black" points="547.64,-571.49 546.56,-560.95 540.83,-569.86 547.64,-571.49"/>
</g>
<!-- node000001854cdeac50 -->
<g id="node36" class="node">
<title>node000001854cdeac50</title>
<path fill="#51ff51" stroke="#000000" d="M622.12,-516.5C622.12,-516.5 687.62,-516.5 687.62,-516.5 693.62,-516.5 699.62,-522.5 699.62,-528.5 699.62,-528.5 699.62,-553.5 699.62,-553.5 699.62,-559.5 693.62,-565.5 687.62,-565.5 687.62,-565.5 622.12,-565.5 622.12,-565.5 616.12,-565.5 610.12,-559.5 610.12,-553.5 610.12,-553.5 610.12,-528.5 610.12,-528.5 610.12,-522.5 616.12,-516.5 622.12,-516.5"/>
<text xml:space="preserve" text-anchor="middle" x="654.88" y="-548.2" font-family="Times New Roman,serif" font-size="14.00">TYPE: NUM</text>
<polyline fill="none" stroke="#000000" points="610.12,-541 699.62,-541"/>
<text xml:space="preserve" text-anchor="middle" x="654.88" y="-523.7" font-family="Times New Roman,serif" font-size="14.00">VALUE: 0</text>
</g>
<!-- node000001854cdea990&#45;&gt;node000001854cdeac50 -->
<g id="edge35" class="edge">
<title>node000001854cdea990:se&#45;&gt;node000001854cdeac50</title>
<path fill="none" stroke="black" d="M662.62,-592.31C664.28,-587.58 664.76,-582.36 664.52,-577.12"/>
<polygon fill="black" stroke="black" points="659.71,-590.37 657.42,-600.71 665.66,-594.05 659.71,-590.37"/>
<polygon fill="black" stroke="black" points="668,-576.77 663.22,-567.32 661.07,-577.69 668,-576.77"/>
</g>
<!-- node000001854cdead90 -->
<g id="node38" class="node">
<title>node000001854cdead90</title>
<path fill="#ec4343" stroke="#000000" d="M730,-523C730,-523 773.75,-523 773.75,-523 779.75,-523 785.75,-529 785.75,-535 785.75,-535 785.75,-547 785.75,-547 785.75,-553 779.75,-559 773.75,-559 773.75,-559 730,-559 730,-559 724,-559 718,-553 718,-547 718,-547 718,-535 718,-535 718,-529 724,-523 730,-523"/>
<text xml:space="preserve" text-anchor="middle" x="751.88" y="-536.2" font-family="Times New Roman,serif" font-size="14.00">TYPE: in</text>
</g>
<!-- node000001854cdeaad0&#45;&gt;node000001854cdead90 -->
<g id="edge37" class="edge">
<title>node000001854cdeaad0:sw&#45;&gt;node000001854cdead90</title>
<path fill="none" stroke="black" d="M745.09,-592.37C742.65,-585.63 742.54,-577.9 743.49,-570.54"/>
<polygon fill="black" stroke="black" points="742.05,-594.1 750.32,-600.72 747.98,-590.38 742.05,-594.1"/>
<polygon fill="black" stroke="black" points="746.88,-571.46 745.4,-560.96 740.01,-570.09 746.88,-571.46"/>
</g>
<!-- node000001854cdeae10 -->
<g id="node39" class="node">
<title>node000001854cdeae10</title>
<path fill="#dd65c9" stroke="#000000" d="M840.38,-523C840.38,-523 877.38,-523 877.38,-523 883.38,-523 889.38,-529 889.38,-535 889.38,-535 889.38,-547 889.38,-547 889.38,-553 883.38,-559 877.38,-559 877.38,-559 840.38,-559 840.38,-559 834.38,-559 828.38,-553 828.38,-547 828.38,-547 828.38,-535 828.38,-535 828.38,-529 834.38,-523 840.38,-523"/>
<text xml:space="preserve" text-anchor="middle" x="858.88" y="-536.2" font-family="Times New Roman,serif" font-size="14.00">TYPE: ;</text>
</g>
<!-- node000001854cdeaad0&#45;&gt;node000001854cdeae10 -->
<g id="edge38" class="edge">
<title>node000001854cdeaad0:se&#45;&gt;node000001854cdeae10</title>
<path fill="none" stroke="black" d="M862.84,-592.36C865.47,-585.71 865.97,-578.07 865.46,-570.79"/>
<polygon fill="black" stroke="black" points="859.92,-590.43 857.45,-600.73 865.81,-594.22 859.92,-590.43"/>
<polygon fill="black" stroke="black" points="868.94,-570.4 864.1,-560.98 862,-571.36 868.94,-570.4"/>
</g>
<!-- node000001854cdead10 -->
<g id="node37" class="node">
<title>node000001854cdead10</title>
<path fill="#8791ff" stroke="#000000" d="M532.88,-430.5C532.88,-430.5 626.88,-430.5 626.88,-430.5 632.88,-430.5 638.88,-436.5 638.88,-442.5 638.88,-442.5 638.88,-467.5 638.88,-467.5 638.88,-473.5 632.88,-479.5 626.88,-479.5 626.88,-479.5 532.88,-479.5 532.88,-479.5 526.88,-479.5 520.88,-473.5 520.88,-467.5 520.88,-467.5 520.88,-442.5 520.88,-442.5 520.88,-436.5 526.88,-430.5 532.88,-430.5"/>
<text xml:space="preserve" text-anchor="middle" x="579.88" y="-462.2" font-family="Times New Roman,serif" font-size="14.00">TYPE: IDENT</text>
<polyline fill="none" stroke="#000000" points="520.88,-455 638.88,-455"/>
<text xml:space="preserve" text-anchor="middle" x="579.88" y="-437.7" font-family="Times New Roman,serif" font-size="14.00">VALUE: Ефимыч</text>
</g>
<!-- node000001854cdeac10&#45;&gt;node000001854cdead10 -->
<g id="edge36" class="edge">
<title>node000001854cdeac10:sw&#45;&gt;node000001854cdead10</title>
<path fill="none" stroke="black" d="M512.74,-512.12C511.5,-503.62 517.96,-494.8 527.31,-486.74"/>
<polygon fill="black" stroke="black" points="509.54,-513.57 517.4,-520.67 515.69,-510.22 509.54,-513.57"/>
<polygon fill="black" stroke="black" points="529.19,-489.71 534.95,-480.81 524.9,-484.18 529.19,-489.71"/>
</g>
<!-- node000001854cdeadd0 -->
<g id="node40" class="node">
<title>node000001854cdeadd0</title>
<path fill="#8791ff" stroke="#000000" d="M669.88,-430.5C669.88,-430.5 763.88,-430.5 763.88,-430.5 769.88,-430.5 775.88,-436.5 775.88,-442.5 775.88,-442.5 775.88,-467.5 775.88,-467.5 775.88,-473.5 769.88,-479.5 763.88,-479.5 763.88,-479.5 669.88,-479.5 669.88,-479.5 663.88,-479.5 657.88,-473.5 657.88,-467.5 657.88,-467.5 657.88,-442.5 657.88,-442.5 657.88,-436.5 663.88,-430.5 669.88,-430.5"/>
<text xml:space="preserve" text-anchor="middle" x="716.88" y="-462.2" font-family="Times New Roman,serif" font-size="14.00">TYPE: IDENT</text>
<polyline fill="none" stroke="#000000" points="657.88,-455 775.88,-455"/>
<text xml:space="preserve" text-anchor="middle" x="716.88" y="-437.7" font-family="Times New Roman,serif" font-size="14.00">VALUE: Ефимыч</text>
</g>
<!-- node000001854cdead90&#45;&gt;node000001854cdeadd0 -->
<g id="edge39" class="edge">
<title>node000001854cdead90:sw&#45;&gt;node000001854cdeadd0</title>
<path fill="none" stroke="black" d="M711.73,-512.59C708.94,-506.05 708.21,-498.56 708.56,-491.2"/>
<polygon fill="black" stroke="black" points="708.7,-514.36 717.16,-520.74 714.52,-510.48 708.7,-514.36"/>
<polygon fill="black" stroke="black" points="712.02,-491.77 709.71,-481.43 705.07,-490.95 712.02,-491.77"/>
</g>
<!-- node000001854cdeae50 -->
<g id="node41" class="node">
<title>node000001854cdeae50</title>
<path fill="#ec4343" stroke="#000000" d="M805.62,-437C805.62,-437 856.12,-437 856.12,-437 862.12,-437 868.12,-443 868.12,-449 868.12,-449 868.12,-461 868.12,-461 868.12,-467 862.12,-473 856.12,-473 856.12,-473 805.62,-473 805.62,-473 799.62,-473 793.62,-467 793.62,-461 793.62,-461 793.62,-449 793.62,-449 793.62,-443 799.62,-437 805.62,-437"/>
<text xml:space="preserve" text-anchor="middle" x="830.88" y="-450.2" font-family="Times New Roman,serif" font-size="14.00">TYPE: out</text>
</g>
<!-- node000001854cdeae10&#45;&gt;node000001854cdeae50 -->
<g id="edge40" class="edge">
<title>node000001854cdeae10:sw&#45;&gt;node000001854cdeae50</title>
<path fill="none" stroke="black" d="M822.2,-512.39C818.92,-503.91 819.34,-493.83 821.13,-484.56"/>
<polygon fill="black" stroke="black" points="819.2,-514.21 827.56,-520.73 825.09,-510.42 819.2,-514.21"/>
<polygon fill="black" stroke="black" points="824.51,-485.45 823.59,-474.9 817.73,-483.73 824.51,-485.45"/>
</g>
<!-- node000001854cdeae90 -->
<g id="node42" class="node">
<title>node000001854cdeae90</title>
<path fill="#8791ff" stroke="#000000" d="M731.88,-344.5C731.88,-344.5 855.88,-344.5 855.88,-344.5 861.88,-344.5 867.88,-350.5 867.88,-356.5 867.88,-356.5 867.88,-381.5 867.88,-381.5 867.88,-387.5 861.88,-393.5 855.88,-393.5 855.88,-393.5 731.88,-393.5 731.88,-393.5 725.88,-393.5 719.88,-387.5 719.88,-381.5 719.88,-381.5 719.88,-356.5 719.88,-356.5 719.88,-350.5 725.88,-344.5 731.88,-344.5"/>
<text xml:space="preserve" text-anchor="middle" x="793.88" y="-376.2" font-family="Times New Roman,serif" font-size="14.00">TYPE: IDENT</text>
<polyline fill="none" stroke="#000000" points="719.88,-369 867.88,-369"/>
<text xml:space="preserve" text-anchor="middle" x="793.88" y="-351.7" font-family="Times New Roman,serif" font-size="14.00">VALUE: по_какой_сел</text>
</g>
<!-- node000001854cdeae50&#45;&gt;node000001854cdeae90 -->
<g id="edge41" class="edge">
<title>node000001854cdeae50:sw&#45;&gt;node000001854cdeae90</title>
<path fill="none" stroke="black" d="M787.42,-426.59C784.72,-420.06 784.12,-412.56 784.64,-405.2"/>
<polygon fill="black" stroke="black" points="784.36,-428.32 792.79,-434.74 790.21,-424.46 784.36,-428.32"/>
<polygon fill="black" stroke="black" points="788.09,-405.81 786.02,-395.42 781.16,-404.84 788.09,-405.81"/>
</g>
<!-- node000001854cdea9d0 -->
<g id="node43" class="node">
<title>node000001854cdea9d0</title>
<path fill="#dd65c9" stroke="#000000" d="M679.25,-265C679.25,-265 760.5,-265 760.5,-265 766.5,-265 772.5,-271 772.5,-277 772.5,-277 772.5,-289 772.5,-289 772.5,-295 766.5,-301 760.5,-301 760.5,-301 679.25,-301 679.25,-301 673.25,-301 667.25,-295 667.25,-289 667.25,-289 667.25,-277 667.25,-277 667.25,-271 673.25,-265 679.25,-265"/>
<text xml:space="preserve" text-anchor="middle" x="719.88" y="-278.2" font-family="Times New Roman,serif" font-size="14.00">TYPE: PARAM</text>
</g>
<!-- node000001854cdeae90&#45;&gt;node000001854cdea9d0 -->
<g id="edge42" class="edge">
<title>node000001854cdeae90:sw&#45;&gt;node000001854cdea9d0</title>
<path fill="none" stroke="black" d="M713.8,-334.37C711.33,-327.72 711.1,-320.08 711.92,-312.8"/>
<polygon fill="black" stroke="black" points="710.77,-336.13 719.07,-342.72 716.69,-332.39 710.77,-336.13"/>
<polygon fill="black" stroke="black" points="715.36,-313.44 713.71,-302.97 708.48,-312.18 715.36,-313.44"/>
</g>
<!-- node000001854cdea850 -->
<g id="node44" class="node">
<title>node000001854cdea850</title>
<path fill="#8791ff" stroke="#000000" d="M724.88,-172.5C724.88,-172.5 818.88,-172.5 818.88,-172.5 824.88,-172.5 830.88,-178.5 830.88,-184.5 830.88,-184.5 830.88,-209.5 830.88,-209.5 830.88,-215.5 824.88,-221.5 818.88,-221.5 818.88,-221.5 724.88,-221.5 724.88,-221.5 718.88,-221.5 712.88,-215.5 712.88,-209.5 712.88,-209.5 712.88,-184.5 712.88,-184.5 712.88,-178.5 718.88,-172.5 724.88,-172.5"/>
<text xml:space="preserve" text-anchor="middle" x="771.88" y="-204.2" font-family="Times New Roman,serif" font-size="14.00">TYPE: IDENT</text>
<polyline fill="none" stroke="#000000" points="712.88,-197 830.88,-197"/>
<text xml:space="preserve" text-anchor="middle" x="771.88" y="-179.7" font-family="Times New Roman,serif" font-size="14.00">VALUE: Ефимыч</text>
</g>
<!-- node000001854cdea9d0&#45;&gt;node000001854cdea850 -->
<g id="edge43" class="edge">
<title>node000001854cdea9d0:se&#45;&gt;node000001854cdea850</title>
<path fill="none" stroke="black" d="M778.69,-254.59C781.37,-248.06 781.92,-240.56 781.36,-233.2"/>
<polygon fill="black" stroke="black" points="775.9,-252.46 773.33,-262.74 781.75,-256.3 775.9,-252.46"/>
<polygon fill="black" stroke="black" points="784.84,-232.81 779.92,-223.42 777.92,-233.83 784.84,-232.81"/>
</g>
</g>
</svg>
